<?xml version="1.0" encoding="utf-8"?>
<!DOCTYPE svg PUBLIC "-//W3C//DTD SVG 1.0//EN" "http://www.w3.org/TR/2001/REC-SVG-20010904/DTD/svg10.dtd">
<svg version="1.0" id="Calque_1" xmlns="http://www.w3.org/2000/svg" xmlns:xlink="http://www.w3.org/1999/xlink" x="0px" y="0px"
	 width="26px" height="26px" viewBox="0 0 26 26" enable-background="new 0 0 26 26" xml:space="preserve">
<path d="M22.742,8.003l2.886-2.783l-4.382-4.547l-4.625,4.459C19.094,5.739,21.163,6.867,22.742,8.003z"/>
<path d="M3.954,17.345l-3.57,3.441l4.775,4.168l5.219-5.031C7.829,19.484,5.663,18.456,3.954,17.345z"/>
<path fill="none" d="M12.961,17.394c2.636,0,4.782-2.233,4.782-4.979c0.001-2.746-2.145-4.979-4.782-4.979S8.18,9.669,8.18,12.415
	C8.18,15.161,10.325,17.394,12.961,17.394z"/>
<path fill="none" d="M8.577,8.094c-3.275,1.175-5.565,3.361-6.455,4.322c0.894,0.974,3.175,3.162,6.466,4.331
	c-1.047-1.127-1.695-2.652-1.695-4.333C6.893,10.739,7.537,9.219,8.577,8.094z"/>
<path fill="none" d="M17.332,8.078c1.049,1.127,1.698,2.654,1.698,4.336c0,1.679-0.646,3.202-1.691,4.328
	c3.284-1.172,5.569-3.358,6.464-4.329C22.912,11.438,20.632,9.245,17.332,8.078z"/>
<g>
	<path fill="none" d="M12.961,7.436c-2.637,0-4.781,2.233-4.781,4.979c0,2.746,2.145,4.979,4.781,4.979s4.782-2.233,4.782-4.979
		C17.744,9.669,15.598,7.436,12.961,7.436z M12.961,15.026c-1.402,0-2.539-1.178-2.539-2.632c0-0.493,0.139-0.948,0.366-1.342
		l2.174,1.342l-0.877-2.462c0.275-0.105,0.567-0.171,0.877-0.171c1.402,0,2.539,1.178,2.538,2.633
		C15.5,13.848,14.363,15.026,12.961,15.026z"/>
	<path fill="none" d="M17.332,8.078c1.049,1.127,1.698,2.654,1.698,4.336c0,1.679-0.646,3.202-1.691,4.328
		c3.284-1.172,5.569-3.358,6.464-4.329C22.912,11.438,20.632,9.245,17.332,8.078z"/>
	<path fill="none" d="M8.577,8.094c-3.275,1.175-5.565,3.361-6.455,4.322c0.894,0.974,3.175,3.162,6.466,4.331
		c-1.047-1.127-1.695-2.652-1.695-4.333C6.893,10.739,7.537,9.219,8.577,8.094z"/>
	<path d="M25.332,11.818c-0.736-0.883-5.349-6.053-12.371-6.053c-3.132,0-6.281,1.066-9.104,3.083
		c-0.971,0.694-3.53,2.842-3.53,3.567c0,0.173,0.061,0.344,0.168,0.481c0.2,0.252,4.977,6.169,12.466,6.169
		c6.984,0,11.635-5.178,12.369-6.049c0.174-0.142,0.285-0.358,0.285-0.6S25.505,11.96,25.332,11.818z M2.122,12.416
		c0.89-0.961,3.18-3.147,6.455-4.322c-1.04,1.125-1.684,2.645-1.684,4.32c0,1.681,0.648,3.206,1.695,4.333
		C5.297,15.578,3.016,13.39,2.122,12.416z M12.961,17.394c-2.636,0-4.781-2.233-4.781-4.979c0-2.746,2.144-4.979,4.781-4.979
		s4.783,2.233,4.782,4.979C17.743,15.161,15.597,17.394,12.961,17.394z M17.339,16.742c1.044-1.126,1.691-2.65,1.691-4.328
		c0-1.683-0.649-3.21-1.698-4.336c3.3,1.168,5.58,3.36,6.471,4.335C22.909,13.384,20.623,15.571,17.339,16.742z"/>
	<path d="M12.962,9.761c-0.31,0-0.602,0.066-0.877,0.171l0.877,2.462l-2.174-1.342c-0.227,0.394-0.366,0.849-0.366,1.342
		c0,1.454,1.137,2.632,2.539,2.632s2.539-1.178,2.539-2.632C15.501,10.939,14.364,9.761,12.962,9.761z"/>
</g>
</svg>
