<?xml version="1.0" encoding="utf-8"?>
<!DOCTYPE svg PUBLIC "-//W3C//DTD SVG 1.0//EN" "http://www.w3.org/TR/2001/REC-SVG-20010904/DTD/svg10.dtd">
<svg version="1.0" id="Calque_1" xmlns="http://www.w3.org/2000/svg" xmlns:xlink="http://www.w3.org/1999/xlink" x="0px" y="0px"
	 width="26px" height="26px" viewBox="0 0 26 26" enable-background="new 0 0 26 26" xml:space="preserve">
<g>
	<path fill="#010101" d="M11.571,1.24c0.249,0.089,0.373,0.382,0.373,0.88v22.077c0,0.498-0.124,0.791-0.373,0.88
		s-0.533-0.027-0.853-0.347l-6.452-6.452H0V8.039h4.266l6.452-6.452C11.038,1.267,11.322,1.151,11.571,1.24z M14.158,19.185
		c-0.16-0.071-0.293-0.178-0.4-0.32c-0.142-0.107-0.24-0.24-0.293-0.4c-0.053-0.16-0.08-0.311-0.08-0.453
		c0-0.178,0.027-0.347,0.08-0.507c0.053-0.16,0.151-0.293,0.293-0.4c0.533-0.569,0.933-1.192,1.2-1.867
		c0.267-0.675,0.4-1.369,0.4-2.08c0-0.711-0.133-1.404-0.4-2.08c-0.267-0.675-0.667-1.298-1.2-1.866
		c-0.142-0.107-0.24-0.24-0.293-0.4c-0.053-0.16-0.08-0.329-0.08-0.507c0-0.142,0.027-0.293,0.08-0.453
		c0.053-0.16,0.151-0.293,0.293-0.4c0.107-0.142,0.24-0.249,0.4-0.32c0.16-0.071,0.329-0.107,0.507-0.107
		c0.142,0,0.293,0.036,0.453,0.107c0.16,0.071,0.293,0.178,0.4,0.32c0.818,0.782,1.422,1.671,1.813,2.666
		c0.391,0.995,0.587,2.009,0.587,3.039s-0.196,2.044-0.587,3.039c-0.391,0.996-0.995,1.885-1.813,2.667
		c-0.107,0.142-0.24,0.249-0.4,0.32c-0.16,0.071-0.311,0.107-0.453,0.107C14.486,19.291,14.317,19.256,14.158,19.185z M18.69,21.584
		c-0.16-0.071-0.293-0.16-0.4-0.267c-0.142-0.142-0.24-0.293-0.293-0.453c-0.053-0.16-0.08-0.311-0.08-0.453
		c0-0.178,0.027-0.347,0.08-0.507c0.053-0.16,0.151-0.293,0.293-0.4c0.853-0.889,1.502-1.884,1.946-2.986
		c0.444-1.103,0.667-2.223,0.667-3.361s-0.222-2.257-0.667-3.359c-0.444-1.102-1.093-2.097-1.946-2.986
		c-0.142-0.107-0.24-0.24-0.293-0.4c-0.053-0.16-0.08-0.329-0.08-0.507c0-0.142,0.027-0.293,0.08-0.453
		c0.053-0.16,0.151-0.311,0.293-0.453c0.107-0.107,0.24-0.196,0.4-0.267c0.16-0.071,0.329-0.107,0.507-0.107
		c0.142,0,0.293,0.036,0.453,0.107c0.16,0.071,0.311,0.16,0.453,0.267c0.533,0.569,1.013,1.164,1.44,1.786s0.783,1.271,1.068,1.946
		c0.284,0.711,0.498,1.431,0.64,2.16c0.142,0.729,0.213,1.484,0.213,2.266s-0.071,1.538-0.213,2.266
		c-0.142,0.729-0.355,1.45-0.64,2.161c-0.284,0.675-0.641,1.324-1.068,1.946s-0.907,1.218-1.44,1.786
		c-0.142,0.107-0.293,0.196-0.453,0.267c-0.16,0.071-0.311,0.107-0.453,0.107C19.019,21.691,18.85,21.655,18.69,21.584z"/>
</g>
</svg>
