<?xml version="1.0" encoding="utf-8"?>
<!DOCTYPE svg PUBLIC "-//W3C//DTD SVG 1.0//EN" "http://www.w3.org/TR/2001/REC-SVG-20010904/DTD/svg10.dtd">
<svg version="1.0" id="Calque_1" xmlns="http://www.w3.org/2000/svg" xmlns:xlink="http://www.w3.org/1999/xlink" x="0px" y="0px"
	 width="26px" height="26px" viewBox="0 0 26 26" enable-background="new 0 0 26 26" xml:space="preserve">
<g>
	<path fill="#010101" d="M11.252,1.881c0.101,0.152,0.135,0.363,0.101,0.633l0.051,20.972c-0.034,0.27-0.084,0.481-0.152,0.633
		c-0.068,0.152-0.203,0.228-0.405,0.228c-0.068,0-0.169-0.034-0.304-0.101s-0.236-0.152-0.304-0.253l-6.18-6.129H0.058L0.007,8.137
		H4.11l6.078-6.129c0.135-0.101,0.253-0.186,0.355-0.253s0.219-0.101,0.355-0.101C11.032,1.653,11.151,1.729,11.252,1.881z
		 M12.974,11.379h13.019l-0.051,3.242H13.025L12.974,11.379z"/>
</g>
</svg>
