<?xml version="1.0" encoding="utf-8"?>
<!DOCTYPE svg PUBLIC "-//W3C//DTD SVG 1.0//EN" "http://www.w3.org/TR/2001/REC-SVG-20010904/DTD/svg10.dtd">
<svg version="1.0" id="Calque_1" xmlns="http://www.w3.org/2000/svg" xmlns:xlink="http://www.w3.org/1999/xlink" x="0px" y="0px"
	 width="26px" height="26px" viewBox="0 0 26 26" enable-background="new 0 0 26 26" xml:space="preserve">
<g>
	<path fill="#181716" d="M25.949,20.851H0V3.976h25.949V20.851z M22.726,16.678v-8.53c0-0.976-0.791-1.767-1.767-1.767H4.991
		c-0.976,0-1.767,0.791-1.767,1.767v8.53c0,0.976,0.791,1.767,1.767,1.767h15.968C21.935,18.446,22.726,17.655,22.726,16.678z"/>
	<g>
		<path d="M4.268,14.157l2.687-0.177c0.058,0.459,0.177,0.809,0.355,1.049c0.291,0.389,0.707,0.584,1.247,0.584
			c0.403,0,0.714-0.099,0.932-0.298c0.218-0.199,0.327-0.429,0.327-0.692c0-0.249-0.104-0.472-0.311-0.669
			c-0.208-0.197-0.69-0.382-1.447-0.557c-1.239-0.293-2.122-0.682-2.65-1.167c-0.532-0.485-0.798-1.104-0.798-1.856
			c0-0.494,0.136-0.961,0.408-1.4C5.291,8.534,5.7,8.189,6.247,7.938c0.547-0.251,1.296-0.377,2.248-0.377
			c1.168,0,2.058,0.228,2.671,0.685c0.613,0.457,0.978,1.184,1.094,2.18L9.598,10.59c-0.071-0.433-0.219-0.747-0.446-0.944
			C8.926,9.449,8.613,9.351,8.214,9.351c-0.328,0-0.576,0.073-0.742,0.22c-0.166,0.146-0.249,0.325-0.249,0.534
			c0,0.153,0.068,0.291,0.206,0.413c0.133,0.127,0.449,0.245,0.947,0.354c1.235,0.28,2.119,0.563,2.653,0.849
			c0.534,0.287,0.923,0.642,1.166,1.065c0.243,0.424,0.364,0.898,0.364,1.423c0,0.617-0.162,1.185-0.486,1.705
			c-0.324,0.52-0.777,0.915-1.359,1.183c-0.582,0.269-1.316,0.403-2.201,0.403c-1.555,0-2.631-0.315-3.23-0.944
			C4.685,15.927,4.346,15.127,4.268,14.157z"/>
		<path d="M12.852,7.724h8.586v2.374h-2.881v7.238h-2.824v-7.238h-2.881V7.724z"/>
	</g>
</g>
</svg>
