<?xml version="1.0" encoding="utf-8"?>
<!DOCTYPE svg PUBLIC "-//W3C//DTD SVG 1.0//EN" "http://www.w3.org/TR/2001/REC-SVG-20010904/DTD/svg10.dtd">
<svg version="1.0" id="Calque_1" xmlns="http://www.w3.org/2000/svg" xmlns:xlink="http://www.w3.org/1999/xlink" x="0px" y="0px"
	 width="26px" height="26px" viewBox="0 0 26 26" enable-background="new 0 0 26 26" xml:space="preserve">
<g>
	<path fill="#010101" d="M11.304,1.383c0.225,0.104,0.355,0.381,0.39,0.832l-0.052,21.57c0.035,0.45-0.078,0.728-0.338,0.832
		c-0.26,0.104-0.528-0.017-0.806-0.364l-6.341-6.238l-4.106-0.052L0,8.036l4.21-0.052l6.237-6.237
		C10.793,1.401,11.079,1.28,11.304,1.383z M25,15.78l-0.052,2.235l-2.131-0.052l-2.86-2.755l-2.755,2.755l-2.235,0.052l0.052-2.235
		l2.755-2.755l-2.755-2.859l-0.052-2.131l2.235-0.052l2.755,2.859l2.86-2.859l2.131,0.052L25,10.167l-2.859,2.859L25,15.78z"/>
</g>
</svg>
