<?xml version="1.0" encoding="utf-8"?>
<!DOCTYPE svg PUBLIC "-//W3C//DTD SVG 1.0//EN" "http://www.w3.org/TR/2001/REC-SVG-20010904/DTD/svg10.dtd">
<svg version="1.0" id="Calque_1" xmlns="http://www.w3.org/2000/svg" xmlns:xlink="http://www.w3.org/1999/xlink" x="0px" y="0px"
	 width="26px" height="26px" viewBox="0 0 26 26" enable-background="new 0 0 26 26" xml:space="preserve">
<g>
	<path fill="#010101" d="M11.252,1.85c0.101,0.152,0.135,0.363,0.101,0.633l0.051,20.975c-0.034,0.27-0.084,0.481-0.152,0.633
		s-0.203,0.228-0.405,0.228c-0.068,0-0.169-0.034-0.304-0.101c-0.135-0.068-0.236-0.152-0.304-0.253l-6.181-6.13H0.055L0.005,8.107
		h4.104l6.079-6.13c0.135-0.101,0.253-0.186,0.355-0.253s0.22-0.101,0.355-0.101C11.032,1.622,11.15,1.698,11.252,1.85z
		 M25.945,14.591h-4.813l-0.051,4.865h-3.193l-0.051-4.865h-4.813l-0.051-3.242h4.914l-0.051-4.864h3.294l-0.051,4.864h4.914
		L25.945,14.591z"/>
</g>
</svg>
