<?xml version="1.0" encoding="utf-8"?>
<!DOCTYPE svg PUBLIC "-//W3C//DTD SVG 1.0//EN" "http://www.w3.org/TR/2001/REC-SVG-20010904/DTD/svg10.dtd">
<svg version="1.0" id="Calque_1" xmlns="http://www.w3.org/2000/svg" xmlns:xlink="http://www.w3.org/1999/xlink" x="0px" y="0px"
	 width="26px" height="26px" viewBox="0 0 26 26" enable-background="new 0 0 26 26" xml:space="preserve">
<g>
	<path fill="#010101" d="M0.07,16.658c0-0.267,0.084-0.484,0.251-0.651c0.2-0.2,0.418-0.302,0.651-0.302
		c0.267,0,0.484,0.101,0.651,0.302l2.055,2.055L8.439,13.3c0.1-0.1,0.217-0.15,0.351-0.15c0.1,0,0.2,0.05,0.301,0.15l1.654,1.654
		c0.1,0.1,0.15,0.2,0.15,0.301c0,0.134-0.05,0.251-0.15,0.351l-4.761,4.762l2.055,2.055c0.2,0.167,0.301,0.384,0.301,0.651
		c0,0.234-0.1,0.451-0.301,0.651c-0.167,0.167-0.384,0.251-0.651,0.251H0.972c-0.234,0-0.451-0.084-0.651-0.251
		c-0.167-0.2-0.251-0.418-0.251-0.651V16.658z M11.395,10.343l4.761-4.761l-2.055-2.055c-0.2-0.167-0.301-0.384-0.301-0.651
		c0-0.234,0.1-0.434,0.301-0.601c0.167-0.2,0.384-0.301,0.651-0.301h6.415c0.234,0,0.434,0.1,0.601,0.301
		c0.2,0.167,0.301,0.367,0.301,0.601v6.414c0,0.267-0.1,0.484-0.301,0.651c-0.167,0.2-0.367,0.301-0.601,0.301
		c-0.267,0-0.485-0.1-0.652-0.301l-2.055-2.055L13.7,12.648c-0.1,0.1-0.217,0.15-0.351,0.15s-0.234-0.05-0.301-0.15l-1.654-1.654
		c-0.1-0.067-0.15-0.167-0.15-0.301C11.245,10.56,11.295,10.443,11.395,10.343z"/>
</g>
</svg>
