<?xml version="1.0" encoding="utf-8"?>
<!DOCTYPE svg PUBLIC "-//W3C//DTD SVG 1.0//EN" "http://www.w3.org/TR/2001/REC-SVG-20010904/DTD/svg10.dtd">
<svg version="1.0" id="Calque_1" xmlns="http://www.w3.org/2000/svg" xmlns:xlink="http://www.w3.org/1999/xlink" x="0px" y="0px"
	 width="26px" height="26px" viewBox="0 0 26 26" enable-background="new 0 0 26 26" xml:space="preserve">
<g>
	<path fill="#010101" d="M5.218,17.853l4.186-4.187L5.218,9.479C4.953,9.214,4.82,8.881,4.82,8.483c0-0.365,0.133-0.681,0.399-0.947
		l1.944-1.944C7.428,5.327,7.76,5.194,8.159,5.194c0.365,0,0.681,0.133,0.947,0.399l4.186,4.186l4.186-4.186
		c0.266-0.266,0.598-0.399,0.997-0.399c0.365,0,0.681,0.133,0.947,0.399l1.944,1.944c0.266,0.266,0.399,0.581,0.399,0.947
		c0,0.399-0.133,0.731-0.399,0.997l-4.186,4.186l4.186,4.187c0.266,0.266,0.399,0.581,0.399,0.947c0,0.399-0.133,0.731-0.399,0.997
		l-1.944,1.944c-0.266,0.266-0.581,0.399-0.947,0.399c-0.399,0-0.731-0.133-0.997-0.399l-4.186-4.186L9.105,21.74
		c-0.266,0.266-0.581,0.399-0.947,0.399c-0.399,0-0.731-0.133-0.997-0.399l-1.944-1.944C4.953,19.53,4.82,19.198,4.82,18.8
		C4.82,18.434,4.953,18.118,5.218,17.853z"/>
</g>
</svg>
