<?xml version="1.0" encoding="utf-8"?>
<!DOCTYPE svg PUBLIC "-//W3C//DTD SVG 1.0//EN" "http://www.w3.org/TR/2001/REC-SVG-20010904/DTD/svg10.dtd">
<svg version="1.0" id="Calque_1" xmlns="http://www.w3.org/2000/svg" xmlns:xlink="http://www.w3.org/1999/xlink" x="0px" y="0px"
	 width="26px" height="26px" viewBox="0 0 26 26" enable-background="new 0 0 26 26" xml:space="preserve">
<g>
	<path fill="#010101" d="M0,2.293c0-0.279,0.087-0.488,0.262-0.628c0.209-0.244,0.436-0.349,0.68-0.314L8.63,1.299
		c0.244,0.035,0.453,0.139,0.628,0.314c0.209,0.209,0.314,0.418,0.314,0.628v21.131c0,0.209-0.105,0.436-0.314,0.68
		c-0.174,0.139-0.384,0.227-0.628,0.262l-7.688-0.052c-0.244,0.035-0.471-0.052-0.68-0.262C0.087,23.825,0,23.599,0,23.32V2.293z
		 M13.389,2.241c0-0.209,0.087-0.418,0.262-0.628c0.209-0.174,0.436-0.279,0.68-0.314l7.69,0.052
		c0.244-0.035,0.453,0.07,0.628,0.314c0.209,0.139,0.314,0.349,0.314,0.628V23.32c0,0.279-0.105,0.506-0.314,0.68
		c-0.174,0.209-0.384,0.296-0.628,0.262l-7.69,0.052c-0.244-0.035-0.471-0.122-0.68-0.262c-0.174-0.244-0.262-0.471-0.262-0.68
		V2.241z"/>
</g>
</svg>
