<?xml version="1.0" encoding="utf-8"?>
<!DOCTYPE svg PUBLIC "-//W3C//DTD SVG 1.0//EN" "http://www.w3.org/TR/2001/REC-SVG-20010904/DTD/svg10.dtd">
<svg version="1.0" id="Calque_1" xmlns="http://www.w3.org/2000/svg" xmlns:xlink="http://www.w3.org/1999/xlink" x="0px" y="0px"
	 width="26px" height="26px" viewBox="0 0 26 26" enable-background="new 0 0 26 26" xml:space="preserve">
<g>
	<g>
		<path fill="none" d="M7.418,19.59c0.02,0.013,2.718,1.294,4.263,3.062c0.482,0.558,0.437,0.613,0.876,1.2
			c0.127,0.168,0.247,0.204,0.281,0.202c0.016-0.001,0.163-0.004,0.183-0.478l-0.005-0.145c-0.081-0.922-0.241-1.824-0.241-1.827
			l-0.171-0.966l0.761,0.651c0.003,0.002,2.511,2.152,3.05,2.547c0.245,0.193,0.419,0.278,0.449,0.263
			c0.017-0.001,0.062,0.002,0.187-0.113l0.01-0.028c0.026-0.086-0.222-0.445-0.392-0.661c-0.674-0.967-1.973-2.472-1.976-2.477
			l0.42-0.531l4.677,2.006l0.042,0.008l0.085,0.012c0.094-0.01,0.183-0.002,0.333-0.232c0.035-0.064,0.045-0.108,0.045-0.155
			c0.007-0.107-0.095-0.273-0.243-0.407c-0.142-0.132-0.283-0.209-0.302-0.22l-5.044-3.177l5.503,0.308h0.058
			c0.075,0.002,0.226-0.01,0.321-0.047c0.103-0.046,0.099-0.049,0.109-0.093l0.006-0.107c-0.012-0.136-0.005-0.136-0.123-0.232
			c-0.126-0.09-0.426-0.206-0.931-0.318c-1.203-0.273-6.699-1.533-6.699-1.533l-0.802-0.185l2.908-1.836
			c-0.001-0.004,0.06-0.044,0.124-0.123c0.069-0.079,0.11-0.176,0.107-0.225l-0.019-0.075c-0.152-0.206-0.046-0.139-0.248-0.169
			c-0.16-0.002-0.464,0.048-0.936,0.138c-1.072,0.2-5.808,1.408-5.819,1.412c-0.018,0.003-0.463,0.111-1.012,0.111
			c-0.337-0.002-0.717-0.038-1.069-0.191c-0.509-0.224-1.023-0.497-1.309-0.653c-0.212,0.143-0.834,0.234-0.837,0.238l-0.586,0.422
			v2.922L7.418,19.59z"/>
		<path fill="none" d="M3.454,13.994c0.017-0.011,2.35-1.271,4.339-1.943c1.415-0.48,2.735-0.598,3.718-0.598
			c1.033,0,1.697,0.135,1.694,0.135l5.627,0.799l0.027,0.009l0.063,0.01l0.137,0.013c0.156-0.007,0.246-0.027,0.307-0.139
			l0.028-0.101c0.003-0.047-0.035-0.122-0.107-0.192c-0.068-0.069-0.131-0.104-0.153-0.116l-3.096-2.004l5.614-1.113
			c-0.002-0.006,0.149-0.026,0.289-0.1c0.149-0.086,0.215-0.154,0.215-0.272l-0.014-0.101c-0.008-0.146-0.266-0.191-0.391-0.191
			h-0.009l-0.024,0.001l-5.783-0.192l1.083-0.598c0.003-0.003,2.663-1.473,4.47-2.712c0.294-0.206,0.344-0.366,0.342-0.431
			c0-0.085-0.109-0.241-0.445-0.25c-0.107,0-0.226,0.02-0.357,0.069c-0.9,0.337-6.037,1.92-6.044,1.923l-0.34-0.589
			c0.002-0.003,2.797-2.279,3.708-3.288c0.219-0.226,0.353-0.377,0.332-0.437c0-0.035-0.01-0.108-0.127-0.251
			c-0.076-0.085-0.119-0.095-0.224-0.1c-0.097-0.001-0.222,0.033-0.317,0.073c-0.098,0.039-0.15,0.073-0.161,0.08
			c-0.022,0.01-5.519,3.155-6.45,3.498c-0.22,0.078-0.414,0.115-0.59,0.115c-0.549,0.008-0.761-0.39-0.807-0.527
			C9.9,4.229,9.058,2.376,8.507,1.338c-0.243-0.447-0.45-0.51-0.538-0.508c-0.12-0.009-0.333,0.165-0.355,0.438
			C7.552,1.99,7.282,4.251,7.073,5.8C6.912,7.295,6.756,7.704,5.646,8.511c-0.351,0.265-1.449,0.58-2.192,0.904v4.709V13.994z"/>
		<path fill="#181716" d="M22.838,8.112c-0.214-0.694-0.923-0.71-1.086-0.711l-0.041,0.001l-3.276-0.108
			c0.948-0.547,2.358-1.385,3.472-2.15c0.401-0.278,0.637-0.619,0.639-0.988c-0.012-0.589-0.579-0.935-1.16-0.937
			c-0.199,0-0.409,0.038-0.618,0.117c-0.521,0.197-2.746,0.896-4.334,1.392c0.862-0.734,1.924-1.666,2.463-2.262
			c0.113-0.154,0.483-0.385,0.505-0.883c0.001-0.229-0.101-0.457-0.28-0.676c-0.213-0.266-0.537-0.368-0.787-0.36
			c-0.484,0.007-0.828,0.245-0.857,0.256c-0.001,0.001-1.382,0.788-2.865,1.613c-1.479,0.824-3.115,1.705-3.454,1.821
			c-0.16,0.058-0.273,0.074-0.341,0.074c-0.113-0.005-0.105-0.024-0.113-0.027L10.7,4.288l-0.007-0.029L10.68,4.227
			c-0.003-0.003-0.925-2.054-1.537-3.202c-0.294-0.56-0.712-0.879-1.174-0.881C7.348,0.161,6.95,0.672,6.902,1.212
			c-0.061,0.692-0.331,2.963-0.538,4.5c-0.252,1.59-0.102,1.393-1.167,2.264c-0.226,0.179-1.164,0.42-1.744,0.681v0.758
			c0.743-0.324,1.842-0.639,2.192-0.904C6.756,7.704,6.912,7.295,7.073,5.8c0.209-1.548,0.478-3.81,0.541-4.532
			C7.636,0.995,7.848,0.822,7.969,0.83c0.088-0.002,0.295,0.061,0.538,0.508C9.058,2.376,9.9,4.229,10.011,4.472
			c0.046,0.137,0.258,0.535,0.807,0.527c0.176,0,0.37-0.037,0.59-0.115c0.931-0.343,6.428-3.488,6.45-3.498
			c0.011-0.006,0.063-0.041,0.161-0.08c0.095-0.04,0.22-0.075,0.317-0.073c0.106,0.006,0.149,0.016,0.224,0.1
			c0.116,0.143,0.127,0.216,0.127,0.251c0.021,0.06-0.113,0.21-0.332,0.437c-0.91,1.009-3.705,3.286-3.708,3.288l0.34,0.589
			c0.007-0.003,5.144-1.585,6.044-1.923c0.131-0.05,0.25-0.069,0.357-0.069c0.335,0.009,0.445,0.165,0.445,0.25
			c0.002,0.065-0.048,0.225-0.342,0.431c-1.807,1.239-4.467,2.709-4.47,2.712l-1.083,0.598l5.783,0.192l0.024-0.001h0.009
			c0.126,0,0.383,0.044,0.391,0.191l0.014,0.101c0,0.118-0.066,0.185-0.215,0.272c-0.14,0.074-0.291,0.095-0.289,0.1l-5.614,1.113
			l3.096,2.004c0.022,0.012,0.085,0.047,0.153,0.116c0.072,0.071,0.11,0.145,0.107,0.192l-0.028,0.101
			c-0.061,0.112-0.151,0.132-0.307,0.139l-0.137-0.013l-0.063-0.01l-0.027-0.009l-5.627-0.799c0.003,0-0.661-0.135-1.694-0.135
			c-0.982,0-2.303,0.119-3.718,0.598c-1.989,0.673-4.322,1.932-4.339,1.943v0.13v0.843l0.586-0.422
			c0.004-0.004,0.625-0.095,0.837-0.238c0.287,0.156,0.8,0.429,1.309,0.653c0.352,0.153,0.731,0.19,1.069,0.191
			c0.549,0,0.993-0.108,1.012-0.111c0.012-0.003,4.747-1.212,5.819-1.412c0.472-0.09,0.777-0.141,0.936-0.138
			c0.202,0.031,0.096-0.037,0.248,0.169l0.019,0.075c0.003,0.049-0.038,0.146-0.107,0.225c-0.065,0.079-0.126,0.119-0.124,0.123
			l-2.908,1.836l0.802,0.185c0,0,5.496,1.26,6.7,1.533c0.505,0.112,0.805,0.227,0.931,0.318c0.118,0.096,0.111,0.096,0.123,0.232
			L20.7,18.295c-0.011,0.043-0.006,0.047-0.109,0.093c-0.095,0.037-0.246,0.049-0.321,0.047h-0.058l-5.503-0.308l5.044,3.177
			c0.019,0.011,0.159,0.088,0.302,0.22c0.148,0.134,0.25,0.3,0.243,0.407c0,0.047-0.01,0.091-0.045,0.155
			c-0.15,0.23-0.24,0.222-0.333,0.232l-0.085-0.012l-0.042-0.008l-4.677-2.006l-0.42,0.531c0.003,0.004,1.302,1.51,1.976,2.477
			c0.17,0.216,0.417,0.575,0.392,0.661l-0.01,0.028c-0.124,0.115-0.17,0.112-0.187,0.113c-0.03,0.014-0.204-0.07-0.449-0.263
			c-0.54-0.395-3.047-2.545-3.05-2.547l-0.761-0.651l0.171,0.966c0,0.002,0.16,0.904,0.241,1.827l0.005,0.145
			c-0.02,0.474-0.167,0.477-0.183,0.478c-0.034,0.002-0.154-0.033-0.281-0.202c-0.439-0.587-0.394-0.642-0.876-1.2
			c-1.546-1.769-4.244-3.049-4.263-3.062l-3.964-1.701v0.769l3.642,1.544c0.009-0.001,2.647,1.281,4.036,2.889
			c0.437,0.503,0.359,0.507,0.845,1.159c0.215,0.29,0.514,0.485,0.862,0.49c0.567-0.006,0.898-0.54,0.899-1.164
			c0-0.062-0.001-0.129-0.008-0.195c-0.029-0.336-0.067-0.666-0.106-0.953c0.784,0.667,1.968,1.666,2.357,1.955
			c0.246,0.168,0.478,0.39,0.885,0.405h0.005c0.253,0,0.491-0.126,0.687-0.313c0.154-0.145,0.225-0.347,0.222-0.514
			c-0.026-0.514-0.409-0.86-0.512-1.04c-0.304-0.436-0.717-0.962-1.09-1.421l3.318,1.423c0.023,0.008,0.182,0.08,0.424,0.081
			c0.289,0.01,0.71-0.151,0.955-0.578c0.095-0.163,0.14-0.336,0.139-0.495c-0.054-0.827-0.874-1.178-0.887-1.212l-2.796-1.76
			l2.844,0.161l0.095,0.002c0.125-0.002,0.342-0.009,0.575-0.093c0.23-0.075,0.524-0.292,0.564-0.652
			c0.009-0.068,0.013-0.131,0.013-0.188c0.014-0.282-0.137-0.607-0.42-0.788c-0.278-0.188-0.643-0.307-1.185-0.429
			c-0.915-0.21-4.322-0.989-5.893-1.349l1.552-0.98c0.037-0.046,0.499-0.322,0.531-0.906c0-0.129-0.034-0.269-0.105-0.397
			c-0.13-0.3-0.496-0.565-0.88-0.533c-0.28,0.001-0.598,0.061-1.075,0.152c-1.139,0.213-5.853,1.417-5.859,1.42
			c0.005,0-0.383,0.09-0.834,0.09c-0.275,0.002-0.563-0.039-0.77-0.13c-0.33-0.145-0.669-0.316-0.938-0.457
			c0.644-0.389,1.535-0.863,2.484-1.183c1.317-0.446,2.557-0.56,3.479-0.56c0.97,0,1.564,0.128,1.567,0.123l5.595,0.796
			c0.055,0.015,0.197,0.047,0.386,0.047c0.269,0.008,0.725-0.093,0.949-0.525c0.066-0.134,0.102-0.268,0.102-0.401
			c-0.038-0.632-0.581-0.861-0.596-0.891l-1.67-1.08l3.94-0.782c0.01-0.002,0.239-0.037,0.499-0.172
			c0.254-0.125,0.589-0.412,0.589-0.873C22.873,8.293,22.86,8.204,22.838,8.112z"/>
	</g>
	<g>
		<path d="M7.418,19.59c0.02,0.013,2.718,1.294,4.263,3.062c0.482,0.558,0.437,0.613,0.876,1.2c0.127,0.168,0.247,0.204,0.281,0.202
			c0.016-0.001,0.163-0.004,0.183-0.478l-0.005-0.145c-0.081-0.922-0.241-1.824-0.241-1.827l-0.171-0.966l0.761,0.651
			c0.003,0.002,2.511,2.152,3.05,2.547c0.245,0.193,0.419,0.278,0.449,0.263c0.017-0.001,0.062,0.002,0.187-0.113l0.01-0.028
			c0.026-0.086-0.222-0.445-0.392-0.661c-0.674-0.967-1.973-2.472-1.976-2.477l0.42-0.531l4.677,2.006l0.042,0.008l0.085,0.012
			c0.094-0.01,0.183-0.002,0.333-0.232c0.035-0.064,0.045-0.108,0.045-0.155c0.007-0.107-0.095-0.273-0.243-0.407
			c-0.142-0.132-0.283-0.209-0.302-0.22l-5.044-3.177l5.503,0.308h0.058c0.075,0.002,0.226-0.01,0.321-0.047
			c0.103-0.046,0.099-0.049,0.109-0.093l0.006-0.107c-0.012-0.136-0.005-0.136-0.123-0.232c-0.126-0.09-0.426-0.206-0.931-0.318
			c-1.203-0.273-6.699-1.533-6.699-1.533l-0.802-0.185l2.908-1.836c-0.001-0.004,0.06-0.044,0.124-0.123
			c0.069-0.079,0.11-0.176,0.107-0.225l-0.019-0.075c-0.152-0.206-0.046-0.139-0.248-0.169c-0.16-0.002-0.464,0.048-0.936,0.138
			c-1.072,0.2-5.808,1.408-5.819,1.412c-0.018,0.003-0.463,0.111-1.012,0.111c-0.337-0.002-0.717-0.038-1.069-0.191
			c-0.509-0.224-1.023-0.497-1.309-0.653c-0.212,0.143-0.834,0.234-0.837,0.238l-0.586,0.422v2.922L7.418,19.59z"/>
		<path d="M3.454,13.994c0.017-0.011,2.35-1.271,4.339-1.943c1.415-0.48,2.735-0.598,3.718-0.598c1.033,0,1.697,0.135,1.694,0.135
			l5.627,0.799l0.027,0.009l0.063,0.01l0.137,0.013c0.156-0.007,0.246-0.027,0.307-0.139l0.028-0.101
			c0.003-0.047-0.035-0.122-0.107-0.192c-0.068-0.069-0.131-0.104-0.153-0.116l-3.096-2.004l5.614-1.113
			c-0.002-0.006,0.149-0.026,0.289-0.1c0.149-0.086,0.215-0.154,0.215-0.272l-0.014-0.101c-0.008-0.146-0.266-0.191-0.391-0.191
			h-0.009l-0.024,0.001l-5.783-0.192l1.083-0.598c0.003-0.003,2.663-1.473,4.47-2.712c0.294-0.206,0.344-0.366,0.342-0.431
			c0-0.085-0.109-0.241-0.445-0.25c-0.107,0-0.226,0.02-0.357,0.069c-0.9,0.337-6.037,1.92-6.044,1.923l-0.34-0.589
			c0.002-0.003,2.797-2.279,3.708-3.288c0.219-0.226,0.353-0.377,0.332-0.437c0-0.035-0.01-0.108-0.127-0.251
			c-0.076-0.085-0.119-0.095-0.224-0.1c-0.097-0.001-0.222,0.033-0.317,0.073c-0.098,0.039-0.15,0.073-0.161,0.08
			c-0.022,0.01-5.519,3.155-6.45,3.498c-0.22,0.078-0.414,0.115-0.59,0.115c-0.549,0.008-0.761-0.39-0.807-0.527
			C9.9,4.229,9.058,2.376,8.507,1.338c-0.243-0.447-0.45-0.51-0.538-0.508c-0.12-0.009-0.333,0.165-0.355,0.438
			C7.552,1.99,7.282,4.251,7.073,5.8C6.912,7.295,6.756,7.704,5.646,8.511c-0.351,0.265-1.449,0.58-2.192,0.904v4.709V13.994z"/>
	</g>
	<rect id="_x3C_Tranche_x3E__4_" x="-0.5" y="-0.5" fill="none" width="26" height="26"/>
</g>
</svg>
