<?xml version="1.0" encoding="utf-8"?>
<!DOCTYPE svg PUBLIC "-//W3C//DTD SVG 1.0//EN" "http://www.w3.org/TR/2001/REC-SVG-20010904/DTD/svg10.dtd">
<svg version="1.0" id="Calque_1" xmlns="http://www.w3.org/2000/svg" xmlns:xlink="http://www.w3.org/1999/xlink" x="0px" y="0px"
	 width="26px" height="26px" viewBox="0 0 26 26" enable-background="new 0 0 26 26" xml:space="preserve">
<g>
	<path fill="#181716" d="M23.392,7.196H11.01c-0.661,0-1.202,0.541-1.202,1.202v16.193c0,0.661,0.541,1.202,1.202,1.202h12.382
		c0.661,0,1.202-0.541,1.202-1.202V8.398C24.594,7.737,24.053,7.196,23.392,7.196z M14.147,14.173h-1.036v-3.547h-1.209V9.937
		c0.318-0.014,0.541-0.035,0.669-0.063c0.203-0.045,0.367-0.135,0.495-0.27c0.087-0.092,0.153-0.215,0.198-0.369
		c0.027-0.092,0.039-0.16,0.039-0.206h0.845V14.173z"/>
	<path fill="#181716" d="M5.17,4.937C5.133,5.449,4.723,5.885,3.946,5.885c-0.382,0-0.716-0.12-0.883-0.23l0.125-0.355
		c0.131,0.083,0.434,0.214,0.752,0.214c0.591,0,0.774-0.376,0.768-0.658C4.704,4.38,4.275,4.176,3.831,4.176H3.575V3.831h0.256
		c0.334,0,0.758-0.172,0.758-0.575c0-0.271-0.172-0.511-0.596-0.511c-0.271,0-0.532,0.12-0.679,0.224L3.194,2.635
		c0.177-0.131,0.522-0.261,0.887-0.261c0.669,0,0.972,0.397,0.972,0.81c0,0.35-0.209,0.648-0.627,0.799v0.01
		C4.819,4.071,5.132,4.359,5.17,4.786v-0.32c0-0.661,0.541-1.202,1.202-1.202h9.82V1.409c0-0.661-0.541-1.202-1.202-1.202H2.608
		c-0.661,0-1.202,0.541-1.202,1.202v16.193c0,0.661,0.541,1.202,1.202,1.202H5.17V4.937z"/>
	<path fill="#181716" d="M9.371,7.953c0-0.661,0.541-1.202,1.202-1.202h9.82V4.903c0-0.661-0.541-1.202-1.202-1.202H6.809
		c-0.661,0-1.202,0.541-1.202,1.202v16.193c0,0.661,0.541,1.202,1.202,1.202h2.562V7.953z M6.996,9.453V9.171l0.361-0.349
		c0.867-0.826,1.259-1.264,1.264-1.777c0-0.345-0.168-0.663-0.674-0.663c-0.308,0-0.564,0.156-0.721,0.287L7.079,6.345
		C7.315,6.147,7.65,6,8.041,6c0.732,0,1.04,0.502,1.04,0.988c0,0.627-0.455,1.134-1.171,1.823l-0.271,0.25v0.01h1.525v0.382H6.996z"
		/>
</g>
</svg>
