<?xml version="1.0" encoding="utf-8"?>
<!DOCTYPE svg PUBLIC "-//W3C//DTD SVG 1.0//EN" "http://www.w3.org/TR/2001/REC-SVG-20010904/DTD/svg10.dtd">
<svg version="1.0" id="Calque_1" xmlns="http://www.w3.org/2000/svg" xmlns:xlink="http://www.w3.org/1999/xlink" x="0px" y="0px"
	 width="26px" height="26px" viewBox="0 0 26 26" enable-background="new 0 0 26 26" xml:space="preserve">
<g>
	<path fill="#010101" d="M10.38,2.695c0.222,0.079,0.333,0.341,0.333,0.786v19.721c0,0.445-0.111,0.707-0.333,0.786
		c-0.222,0.079-0.476-0.024-0.762-0.31l-5.763-5.763H0.044V8.768h3.811l5.763-5.763C9.903,2.719,10.157,2.616,10.38,2.695z
		 M12.69,18.724c-0.143-0.064-0.262-0.159-0.357-0.286c-0.127-0.095-0.214-0.214-0.262-0.357c-0.048-0.143-0.071-0.278-0.071-0.405
		c0-0.159,0.024-0.31,0.071-0.453c0.048-0.143,0.135-0.262,0.262-0.357c0.476-0.508,0.834-1.065,1.072-1.668
		c0.238-0.603,0.357-1.223,0.357-1.858s-0.119-1.254-0.357-1.858c-0.238-0.603-0.595-1.159-1.072-1.667
		c-0.127-0.095-0.214-0.214-0.262-0.357s-0.071-0.294-0.071-0.453c0-0.127,0.024-0.262,0.071-0.405s0.135-0.262,0.262-0.357
		c0.095-0.127,0.214-0.222,0.357-0.286c0.143-0.064,0.294-0.095,0.453-0.095c0.127,0,0.262,0.032,0.405,0.095
		c0.143,0.064,0.262,0.159,0.357,0.286c0.73,0.699,1.27,1.492,1.619,2.382s0.524,1.794,0.524,2.715c0,0.921-0.175,1.826-0.524,2.715
		c-0.349,0.89-0.889,1.684-1.619,2.383c-0.095,0.127-0.214,0.222-0.357,0.286c-0.143,0.064-0.278,0.095-0.405,0.095
		C12.984,18.819,12.833,18.788,12.69,18.724z M16.739,20.868c-0.143-0.064-0.262-0.143-0.357-0.238
		c-0.127-0.127-0.214-0.262-0.262-0.405c-0.048-0.143-0.071-0.278-0.071-0.405c0-0.159,0.024-0.31,0.071-0.453
		c0.048-0.143,0.135-0.262,0.262-0.357c0.762-0.794,1.342-1.683,1.739-2.667c0.397-0.985,0.595-1.986,0.595-3.002
		s-0.198-2.016-0.595-3.001s-0.976-1.874-1.739-2.667c-0.127-0.095-0.214-0.214-0.262-0.357s-0.071-0.294-0.071-0.453
		c0-0.127,0.024-0.262,0.071-0.405s0.135-0.278,0.262-0.405c0.095-0.095,0.214-0.175,0.357-0.238
		c0.143-0.064,0.294-0.095,0.453-0.095c0.127,0,0.262,0.032,0.405,0.095c0.143,0.064,0.278,0.143,0.405,0.238
		c0.476,0.508,0.905,1.04,1.286,1.596c0.381,0.556,0.699,1.135,0.953,1.739c0.254,0.635,0.445,1.278,0.572,1.929
		c0.127,0.651,0.191,1.326,0.191,2.024s-0.064,1.373-0.191,2.024c-0.127,0.651-0.318,1.295-0.572,1.93
		c-0.254,0.603-0.572,1.183-0.953,1.739c-0.381,0.556-0.81,1.088-1.286,1.596c-0.127,0.095-0.262,0.175-0.405,0.238
		c-0.143,0.064-0.278,0.095-0.405,0.095C17.032,20.963,16.882,20.931,16.739,20.868z M20.811,23.035
		c-0.127-0.048-0.254-0.135-0.381-0.262c-0.095-0.127-0.175-0.254-0.238-0.381s-0.095-0.27-0.095-0.429
		c0-0.159,0.032-0.302,0.095-0.429s0.143-0.254,0.238-0.381c0.508-0.508,0.969-1.064,1.382-1.667c0.413-0.603,0.746-1.238,1-1.905
		c0.286-0.667,0.5-1.358,0.643-2.073c0.143-0.714,0.214-1.437,0.214-2.167s-0.071-1.453-0.214-2.167
		c-0.143-0.714-0.357-1.405-0.643-2.072c-0.254-0.667-0.587-1.302-1-1.905c-0.414-0.603-0.874-1.159-1.382-1.667
		c-0.095-0.127-0.175-0.254-0.238-0.381c-0.064-0.127-0.095-0.27-0.095-0.429s0.032-0.302,0.095-0.429s0.143-0.254,0.238-0.381
		c0.127-0.127,0.254-0.214,0.381-0.262s0.27-0.071,0.429-0.071c0.159,0,0.302,0.024,0.429,0.071
		c0.128,0.048,0.255,0.135,0.382,0.262c0.635,0.635,1.191,1.318,1.667,2.048s0.889,1.492,1.238,2.286
		c0.318,0.794,0.564,1.619,0.738,2.477c0.175,0.857,0.262,1.731,0.262,2.62c0,0.889-0.087,1.762-0.262,2.62
		c-0.175,0.858-0.421,1.684-0.738,2.478c-0.349,0.794-0.762,1.556-1.238,2.286c-0.476,0.73-1.032,1.413-1.667,2.048
		c-0.127,0.127-0.254,0.214-0.382,0.262c-0.127,0.048-0.27,0.071-0.429,0.071C21.081,23.106,20.938,23.082,20.811,23.035z"/>
</g>
</svg>
