<?xml version="1.0" encoding="utf-8"?>
<!DOCTYPE svg PUBLIC "-//W3C//DTD SVG 1.0//EN" "http://www.w3.org/TR/2001/REC-SVG-20010904/DTD/svg10.dtd">
<svg version="1.0" id="Calque_1" xmlns="http://www.w3.org/2000/svg" xmlns:xlink="http://www.w3.org/1999/xlink" x="0px" y="0px"
	 width="26px" height="26px" viewBox="0 0 26 26" enable-background="new 0 0 26 26" xml:space="preserve">
<g>
	<path fill="#010101" d="M11.168,1.497c0.24,0.086,0.36,0.369,0.36,0.849v21.308c0,0.48-0.12,0.763-0.36,0.849
		s-0.515-0.026-0.823-0.335l-6.227-6.227H0V8.059h4.117l6.227-6.227C10.653,1.523,10.928,1.411,11.168,1.497z M13.664,18.816
		c-0.154-0.069-0.283-0.172-0.386-0.309c-0.137-0.103-0.232-0.232-0.283-0.386c-0.051-0.154-0.077-0.3-0.077-0.437
		c0-0.172,0.026-0.335,0.077-0.489c0.051-0.154,0.146-0.283,0.283-0.386c0.515-0.549,0.901-1.15,1.158-1.802
		c0.257-0.652,0.386-1.321,0.386-2.007s-0.129-1.355-0.386-2.007c-0.257-0.652-0.643-1.252-1.158-1.801
		c-0.137-0.103-0.232-0.232-0.283-0.386c-0.051-0.154-0.077-0.317-0.077-0.489c0-0.137,0.026-0.283,0.077-0.437
		c0.051-0.154,0.146-0.283,0.283-0.386c0.103-0.137,0.232-0.24,0.386-0.309c0.154-0.069,0.317-0.103,0.489-0.103
		c0.137,0,0.283,0.034,0.437,0.103c0.154,0.069,0.283,0.172,0.386,0.309c0.789,0.755,1.372,1.613,1.75,2.573
		c0.377,0.961,0.566,1.939,0.566,2.934s-0.189,1.973-0.566,2.934c-0.377,0.962-0.961,1.82-1.75,2.574
		c-0.103,0.137-0.232,0.24-0.386,0.309c-0.154,0.069-0.3,0.103-0.437,0.103C13.981,18.919,13.818,18.885,13.664,18.816z"/>
</g>
</svg>
