<?xml version="1.0" encoding="utf-8"?>
<!DOCTYPE svg PUBLIC "-//W3C//DTD SVG 1.0//EN" "http://www.w3.org/TR/2001/REC-SVG-20010904/DTD/svg10.dtd">
<svg version="1.0" id="Calque_1" xmlns="http://www.w3.org/2000/svg" xmlns:xlink="http://www.w3.org/1999/xlink" x="0px" y="0px"
	 width="26px" height="26px" viewBox="0 0 26 26" enable-background="new 0 0 26 26" xml:space="preserve">
<g>
	<path fill="#010101" d="M23.7,15.484c0.101,0.203,0.22,0.389,0.355,0.559c0.135,0.169,0.287,0.338,0.456,0.507
		c0.135,0.135,0.287,0.27,0.456,0.406s0.355,0.254,0.558,0.355l-2.586,4.412c-0.575-0.338-1.192-0.549-1.851-0.634
		c-0.66-0.085-1.294-0.042-1.903,0.127s-1.175,0.448-1.699,0.837c-0.524,0.389-0.955,0.87-1.293,1.445
		C16.093,23.7,16,23.903,15.915,24.106c-0.085,0.203-0.161,0.406-0.228,0.608c-0.034,0.203-0.068,0.414-0.101,0.634
		c-0.034,0.22-0.051,0.431-0.051,0.634h-5.122c0-0.676-0.127-1.318-0.38-1.927c-0.254-0.608-0.6-1.132-1.04-1.572
		s-0.963-0.786-1.572-1.04s-1.251-0.38-1.927-0.38c-0.237,0-0.456,0.008-0.659,0.025c-0.203,0.017-0.406,0.059-0.608,0.127
		c-0.237,0.068-0.448,0.144-0.634,0.228c-0.186,0.085-0.38,0.177-0.583,0.279l-2.535-4.412c0.608-0.372,1.107-0.82,1.496-1.345
		c0.389-0.524,0.668-1.09,0.837-1.699c0.135-0.608,0.169-1.234,0.101-1.876c-0.068-0.642-0.27-1.268-0.608-1.876
		c-0.101-0.169-0.22-0.347-0.355-0.532C1.81,9.796,1.658,9.636,1.489,9.501C1.354,9.332,1.193,9.188,1.007,9.07
		S0.644,8.841,0.475,8.74L3.01,4.328c0.608,0.338,1.234,0.541,1.876,0.608s1.285,0.017,1.927-0.152
		C7.422,4.65,7.988,4.388,8.512,3.999C9.036,3.61,9.467,3.111,9.805,2.503C9.906,2.3,9.999,2.097,10.084,1.894
		s0.161-0.406,0.228-0.608c0.034-0.203,0.068-0.414,0.101-0.634c0.034-0.22,0.051-0.431,0.051-0.634h5.071
		c0,0.676,0.135,1.318,0.406,1.927s0.625,1.132,1.065,1.572c0.439,0.473,0.963,0.837,1.572,1.09s1.251,0.38,1.927,0.38
		c0.203,0,0.414-0.017,0.635-0.051c0.22-0.034,0.431-0.068,0.634-0.101c0.237-0.068,0.448-0.144,0.634-0.228
		c0.186-0.085,0.38-0.177,0.583-0.279l2.535,4.412c-0.608,0.338-1.107,0.769-1.496,1.293c-0.389,0.524-0.668,1.09-0.837,1.699
		c-0.169,0.608-0.211,1.242-0.127,1.902S23.362,14.909,23.7,15.484z M12.999,18.274c0.71,0,1.386-0.144,2.028-0.431
		c0.642-0.287,1.2-0.668,1.673-1.141c0.473-0.473,0.854-1.032,1.141-1.674c0.287-0.642,0.431-1.318,0.431-2.028
		s-0.144-1.386-0.431-2.028s-0.668-1.2-1.141-1.673c-0.473-0.473-1.031-0.854-1.673-1.141c-0.642-0.287-1.318-0.431-2.028-0.431
		s-1.386,0.144-2.028,0.431c-0.642,0.287-1.2,0.668-1.673,1.141c-0.473,0.473-0.854,1.031-1.141,1.673
		c-0.287,0.642-0.431,1.318-0.431,2.028s0.144,1.386,0.431,2.028c0.287,0.642,0.668,1.201,1.141,1.674
		c0.473,0.473,1.031,0.854,1.673,1.141S12.29,18.274,12.999,18.274z"/>
</g>
</svg>
