<?xml version="1.0" encoding="utf-8"?>
<!DOCTYPE svg PUBLIC "-//W3C//DTD SVG 1.0//EN" "http://www.w3.org/TR/2001/REC-SVG-20010904/DTD/svg10.dtd">
<svg version="1.0" id="Calque_1" xmlns="http://www.w3.org/2000/svg" xmlns:xlink="http://www.w3.org/1999/xlink" x="0px" y="0px"
	 width="26px" height="26px" viewBox="0 0 26 26" enable-background="new 0 0 26 26" xml:space="preserve">
<g>
	<path fill="#010101" d="M6.784,7.965C6.75,7.829,6.767,7.694,6.834,7.558c1.56-2.543,3.814-3.831,6.764-3.865
		c0.78,0.034,1.56,0.186,2.339,0.458c0.78,0.305,1.475,0.695,2.085,1.17c0.644,0.542,1.17,1.17,1.577,1.882
		c0.373,0.746,0.559,1.509,0.559,2.288c0,0.542-0.068,1.034-0.203,1.475c-0.136,0.475-0.305,0.848-0.509,1.119
		c-0.203,0.305-0.475,0.593-0.814,0.865c-0.339,0.305-0.61,0.509-0.814,0.61c-0.203,0.17-0.509,0.339-0.915,0.509
		c-0.373,0.271-0.695,0.593-0.966,0.966c-0.271,0.441-0.407,0.764-0.407,0.967c0,0.203-0.051,0.356-0.153,0.458
		c-0.136,0.203-0.271,0.288-0.407,0.254l-3.509,0.051c-0.136-0.034-0.254-0.136-0.356-0.305c-0.102-0.203-0.153-0.373-0.153-0.509
		v-0.713c0-0.78,0.305-1.543,0.915-2.288c0.644-0.678,1.339-1.204,2.085-1.577c0.576-0.237,0.983-0.509,1.221-0.814
		c0.237-0.237,0.356-0.61,0.356-1.119c0-0.373-0.22-0.729-0.661-1.068c-0.441-0.271-0.966-0.424-1.577-0.458
		c-0.61,0.034-1.136,0.17-1.577,0.407c-0.339,0.305-0.848,0.865-1.526,1.678c-0.136,0.203-0.288,0.288-0.458,0.254
		c-0.102,0.034-0.22,0-0.356-0.102l-2.39-1.78C6.851,8.236,6.784,8.117,6.784,8.016V7.965z M10.954,18.239
		c0-0.17,0.051-0.305,0.153-0.407c0.136-0.136,0.271-0.186,0.407-0.153l3.509-0.051c0.136,0.034,0.271,0.085,0.407,0.153
		c0.102,0.17,0.153,0.305,0.153,0.407v3.56c0,0.136-0.051,0.271-0.153,0.407c-0.136,0.068-0.271,0.119-0.407,0.153l-3.509-0.051
		c-0.136,0.034-0.271-0.017-0.407-0.153c-0.102-0.068-0.153-0.203-0.153-0.407V18.239z"/>
</g>
</svg>
