<?xml version="1.0" encoding="utf-8"?>
<!DOCTYPE svg PUBLIC "-//W3C//DTD SVG 1.0//EN" "http://www.w3.org/TR/2001/REC-SVG-20010904/DTD/svg10.dtd">
<svg version="1.0" id="Calque_1" xmlns="http://www.w3.org/2000/svg" xmlns:xlink="http://www.w3.org/1999/xlink" x="0px" y="0px"
	 width="26px" height="26px" viewBox="0 0 26 26" enable-background="new 0 0 26 26" xml:space="preserve">
<g>
	<path fill="#010101" d="M0,1.371c0-0.372,0.135-0.694,0.406-0.965S0.999,0,1.371,0h11.628v7.871c0,0.372,0.135,0.694,0.406,0.965
		s0.592,0.406,0.965,0.406h7.923v15.336c0,0.406-0.135,0.745-0.406,1.016S21.278,26,20.87,26H1.371
		c-0.372,0-0.694-0.135-0.965-0.406S0,24.984,0,24.578V1.371z M5.687,12.847c0.102,0.102,0.22,0.152,0.355,0.152h10.207
		c0.135,0,0.254-0.051,0.355-0.152c0.068-0.102,0.102-0.22,0.102-0.355v-0.914c0-0.135-0.034-0.237-0.102-0.305
		c-0.102-0.102-0.22-0.152-0.355-0.152H6.043c-0.135,0-0.254,0.051-0.355,0.152c-0.068,0.068-0.102,0.169-0.102,0.305v0.914
		C5.586,12.627,5.62,12.746,5.687,12.847z M5.687,16.555c0.102,0.102,0.22,0.152,0.355,0.152h10.207
		c0.135,0,0.254-0.051,0.355-0.152c0.068-0.068,0.102-0.169,0.102-0.305v-0.966c0-0.135-0.034-0.237-0.102-0.305
		c-0.102-0.102-0.22-0.152-0.355-0.152H6.043c-0.135,0-0.254,0.051-0.355,0.152c-0.068,0.068-0.102,0.169-0.102,0.305v0.966
		C5.586,16.386,5.62,16.487,5.687,16.555z M5.687,20.262c0.102,0.102,0.22,0.152,0.355,0.152h10.207
		c0.135,0,0.254-0.051,0.355-0.152c0.068-0.068,0.102-0.169,0.102-0.305v-0.965c0-0.135-0.034-0.237-0.102-0.305
		c-0.102-0.102-0.22-0.152-0.355-0.152H6.043c-0.135,0-0.254,0.051-0.355,0.152c-0.068,0.068-0.102,0.169-0.102,0.305v0.965
		C5.586,20.093,5.62,20.194,5.687,20.262z M14.878,0.559c0.203,0.135,0.372,0.271,0.508,0.406l5.891,5.941
		c0.135,0.135,0.271,0.305,0.406,0.508h-6.805V0.559z"/>
</g>
</svg>
