<?xml version="1.0" encoding="utf-8"?>
<!DOCTYPE svg PUBLIC "-//W3C//DTD SVG 1.0//EN" "http://www.w3.org/TR/2001/REC-SVG-20010904/DTD/svg10.dtd">
<svg version="1.0" id="Calque_1" xmlns="http://www.w3.org/2000/svg" xmlns:xlink="http://www.w3.org/1999/xlink" x="0px" y="0px"
	 width="26px" height="26px" viewBox="0 0 26 26" enable-background="new 0 0 26 26" xml:space="preserve">
<g>

		<rect x="13.912" y="9.585" transform="matrix(0.4909 0.8712 -0.8712 0.4909 17.0598 -8.9934)" fill="none" width="4.626" height="1.031"/>

		<rect x="10.392" y="12.238" transform="matrix(0.712 0.7021 -0.7021 0.712 12.6129 -5.2482)" fill="none" width="4.626" height="1.031"/>

		<rect x="18.04" y="8.038" transform="matrix(0.2318 0.9728 -0.9728 0.2318 23.9564 -13.2269)" fill="none" width="4.626" height="1.031"/>

		<rect x="7.767" y="15.778" transform="matrix(0.878 0.4787 -0.4787 0.878 9.029 -2.837)" fill="none" width="4.626" height="1.031"/>
	<path fill="none" d="M-4.25,0v24.125h8.21c-0.001-0.032-0.005-0.063-0.005-0.094c0-11.049,8.9-20.01,19.92-20.129v19.029
		l-13.826-5.189l-0.534,1.424l13.215,4.959h11.708V0H-4.25z M9.47,5.128H2.674c-0.584,0-1.057-0.473-1.057-1.057
		S2.09,3.014,2.674,3.014H9.47c0.584,0,1.057,0.473,1.057,1.057S10.054,5.128,9.47,5.128z"/>

		<rect x="6.252" y="19.917" transform="matrix(-0.9759 -0.2181 0.2181 -0.9759 12.4672 42.2422)" fill="none" width="4.626" height="1.031"/>
	<path d="M9.47,3.014H2.674c-0.584,0-1.057,0.473-1.057,1.057S2.09,5.128,2.674,5.128H9.47c0.584,0,1.057-0.473,1.057-1.057
		S10.054,3.014,9.47,3.014z"/>
	<path d="M10.049,17.742l13.826,5.189V3.902c-11.021,0.119-19.92,9.08-19.92,20.129c0,0.032,0.004,0.063,0.005,0.094h18.77
		L9.515,19.166L10.049,17.742z M20.318,6.185l1.072,4.5l-1.003,0.239l-1.072-4.5L20.318,6.185z M15.539,7.833l2.271,4.03
		l-0.898,0.506l-2.271-4.03L15.539,7.833z M11.42,10.762l3.294,3.248l-0.724,0.734l-3.294-3.248L11.42,10.762z M8.296,14.734
		l4.061,2.214l-0.494,0.905l-4.061-2.214L8.296,14.734z M10.935,20.434l-0.225,1.006l-4.514-1.009l0.225-1.006L10.935,20.434z"/>
</g>
</svg>
