<?xml version="1.0" encoding="utf-8"?>
<!DOCTYPE svg PUBLIC "-//W3C//DTD SVG 1.0//EN" "http://www.w3.org/TR/2001/REC-SVG-20010904/DTD/svg10.dtd">
<svg version="1.0" id="Calque_1" xmlns="http://www.w3.org/2000/svg" xmlns:xlink="http://www.w3.org/1999/xlink" x="0px" y="0px"
	 width="26px" height="26px" viewBox="0 0 26 26" enable-background="new 0 0 26 26" xml:space="preserve">
<g>
	<path fill="#010101" d="M0.07,21.831c0-0.136,0.051-0.238,0.153-0.306l4.798-4.9l-2.093-2.043c-0.17-0.238-0.255-0.459-0.255-0.664
		c0-0.306,0.085-0.527,0.255-0.664C3.133,13.051,3.354,12.966,3.592,13l6.533-0.051c0.272,0.034,0.493,0.119,0.664,0.255
		c0.17,0.204,0.255,0.425,0.255,0.664v6.585c0,0.204-0.085,0.425-0.255,0.664c-0.17,0.136-0.391,0.221-0.664,0.255
		c-0.238-0.034-0.459-0.119-0.664-0.255l-2.093-2.144L2.52,23.822c-0.102,0.068-0.204,0.119-0.306,0.153
		c-0.136-0.034-0.255-0.085-0.357-0.153l-1.633-1.684C0.121,22.069,0.07,21.95,0.07,21.78V21.831z M11.044,12.03V5.445
		c0-0.204,0.102-0.425,0.306-0.664c0.17-0.136,0.391-0.221,0.664-0.255c0.238,0.034,0.459,0.119,0.664,0.255l2.093,2.195l4.849-4.9
		c0.068-0.068,0.17-0.119,0.306-0.153c0.136,0.034,0.255,0.085,0.357,0.153l1.634,1.684c0.102,0.068,0.153,0.187,0.153,0.357
		c0,0.102-0.051,0.204-0.153,0.306l-4.85,4.798l2.144,2.144c0.17,0.17,0.255,0.391,0.255,0.664c0,0.238-0.085,0.459-0.255,0.664
		c-0.204,0.17-0.425,0.272-0.664,0.306l-6.533-0.051c-0.272,0.034-0.493-0.068-0.664-0.306c-0.204-0.136-0.306-0.357-0.306-0.664
		V12.03z"/>
</g>
</svg>
