<?xml version="1.0" encoding="utf-8"?>
<!DOCTYPE svg PUBLIC "-//W3C//DTD SVG 1.0//EN" "http://www.w3.org/TR/2001/REC-SVG-20010904/DTD/svg10.dtd">
<svg version="1.0" id="Calque_1" xmlns="http://www.w3.org/2000/svg" xmlns:xlink="http://www.w3.org/1999/xlink" x="0px" y="0px"
	 width="26px" height="26px" viewBox="0 0 26 26" enable-background="new 0 0 26 26" xml:space="preserve">
<g>

		<rect x="7.212" y="9.585" transform="matrix(-0.4909 0.8712 -0.8712 -0.4909 23.0006 6.7615)" fill="none" width="4.626" height="1.031"/>

		<rect x="10.732" y="12.238" transform="matrix(-0.712 0.7021 -0.7021 -0.712 31.2881 12.6746)" fill="none" width="4.626" height="1.031"/>

		<rect x="3.085" y="8.038" transform="matrix(-0.2318 0.9728 -0.9728 -0.2318 14.9695 5.2861)" fill="none" width="4.626" height="1.031"/>

		<rect x="13.357" y="15.778" transform="matrix(-0.878 0.4787 -0.4787 -0.878 37.2277 23.0991)" fill="none" width="4.626" height="1.031"/>
	<path fill="none" d="M-8.688,0v24.125H3.02l13.215-4.959l-0.534-1.424L1.875,22.931V3.902c11.021,0.119,19.92,9.08,19.92,20.129
		c0,0.032-0.004,0.063-0.005,0.094H30V0L-8.688,0z M15.223,4.071c0-0.584,0.473-1.057,1.057-1.057h6.796
		c0.584,0,1.057,0.473,1.057,1.057s-0.473,1.057-1.057,1.057H16.28C15.696,5.128,15.223,4.655,15.223,4.071z"/>

		<rect x="14.872" y="19.917" transform="matrix(0.9759 -0.2181 0.2181 0.9759 -4.0428 4.2401)" fill="none" width="4.626" height="1.031"/>
	<path fill="#181716" d="M1.875,3.902v17.921l8.266-10.282l1.117,0.898L1.875,24.11v0.512h19.83c0.006-0.199,0.03-0.394,0.03-0.594
		C21.735,12.999,12.867,4.054,1.875,3.902z M5.302,10.92l-1.003-0.239l1.072-4.5l1.003,0.239L5.302,10.92z M8.778,12.366L7.88,11.86
		l2.271-4.03l0.898,0.506L8.778,12.366z M10.976,14.007l3.294-3.248l0.724,0.734L11.7,14.741L10.976,14.007z M19.494,20.429
		l-4.514,1.009l-0.225-1.006l4.514-1.009L19.494,20.429z M17.887,15.636l-4.061,2.214l-0.494-0.905l4.061-2.214L17.887,15.636z"/>
	<g>
		<path d="M20.405,8.051h-1.455c-0.133,0-0.242-0.108-0.242-0.242V0.333c0-0.133,0.108-0.242,0.242-0.242h1.455
			c0.133,0,0.242,0.108,0.242,0.242v7.476C20.647,7.943,20.539,8.051,20.405,8.051z"/>
		<path d="M23.762,3.663v1.024c0,0.252-0.205,0.457-0.457,0.457h-7.254c-0.252,0-0.457-0.205-0.457-0.457V3.663
			c0-0.252,0.205-0.457,0.457-0.457h7.254C23.557,3.206,23.762,3.411,23.762,3.663z"/>
	</g>
</g>
</svg>
