<?xml version="1.0" encoding="utf-8"?>
<!DOCTYPE svg PUBLIC "-//W3C//DTD SVG 1.0//EN" "http://www.w3.org/TR/2001/REC-SVG-20010904/DTD/svg10.dtd">
<svg version="1.0" id="Calque_1" xmlns="http://www.w3.org/2000/svg" xmlns:xlink="http://www.w3.org/1999/xlink" x="0px" y="0px"
	 width="26px" height="26px" viewBox="0 0 26 26" enable-background="new 0 0 26 26" xml:space="preserve">
<g>
	<path fill="#191817" d="M10.009,13.893c-0.687,0-1.397,0.162-2.113,0.567c-0.705-0.398-1.43-0.557-2.143-0.557
		c-2.375,0-4.612,1.771-5.488,2.399c2.416,2.08,4.642,2.986,7.631,3.208c2.989-0.223,5.214-1.129,7.631-3.208
		C14.261,15.619,12.251,13.892,10.009,13.893z M4.32,16.524c2.338-0.891,4.257-0.966,6.775,0C9.296,17.861,6.298,17.712,4.32,16.524
		z"/>
	<path fill="#191817" d="M25.596,13.002c-0.311-0.609-1.358-0.871-2.012-0.582L20.528,13.8c-1.544-0.059-2.154-1.034-2.385-1.907
		v-8.57c0-0.761-0.597-1.383-1.326-1.383s-1.326,0.623-1.261,1.383v8.658h-0.74L14.783,1.798c0.065-0.758-0.539-1.379-1.278-1.379
		H13.37c-0.739,0-1.278,0.621-1.278,1.379v6.363c-0.213-0.328-0.564-0.558-0.982-0.558h-0.087c-0.655,0-1.191,0.536-1.191,1.191
		v1.874C9.624,10.167,9.197,9.885,8.6,9.874c-0.561,0.017-1.016,0.443-1.016,0.969v2.903c0.104,0.042,0.209,0.081,0.311,0.131
		c0.671-0.332,1.38-0.499,2.114-0.499h0c1.874,0,3.567,1.088,4.803,1.882c0.351,0.226,0.683,0.439,0.959,0.588l0.659,0.355
		l-0.568,0.489c-2.477,2.131-4.774,3.097-7.929,3.332l-0.038,0.003l-0.038-0.003c-0.023-0.002-0.043-0.005-0.065-0.007
		c0.226,0.87,0.693,2.078,1.662,3.156v2.531h7.721v-3.302c2.373-1.529,2.962-4.042,2.962-4.578c0-0.327,0.842-1.122,1.516-1.707
		l3.014-1.361C25.37,14.445,25.929,13.656,25.596,13.002z"/>
</g>
</svg>
